<?xml version="1.0" encoding="utf-8"?>
<!-- Generator: Adobe Illustrator 18.1.1, SVG Export Plug-In . SVG Version: 6.00 Build 0)  -->
<svg version="1.1" id="Your_Icon" xmlns="http://www.w3.org/2000/svg" xmlns:xlink="http://www.w3.org/1999/xlink" x="0px" y="0px"
	 viewBox="-241.8 348.5 76.5 70.5" enable-background="new -241.8 348.5 76.5 70.5" xml:space="preserve">
<path d="M-171.7,363.4c-2.4-3.1-5.5-4.7-8.7-4.7c-1.6,0-2.8,0.2-3.7,0.5c-0.1,0-1.7,0.4-3.3,1.6c-1.6-6.8-6.6-10.4-14.5-10.4
	c-4,0-6.7,1.2-8.3,3.9c-1.5-0.6-3.1-0.8-4.9-0.8c-7.4,0-15.5,5.1-15.8,13.4c-1.6,0.4-9.2,3-9.2,12c0,7.3,5.7,12.9,13.3,12.9
	c2.4,0,4.8-0.5,7.1-1.6v22c0,2.5,9.3,3.8,18.5,3.8c9.2,0,18.5-1.3,18.5-3.8v-22.5c0.1-0.2,0.5-1,1.5-1.2c2.9-0.5,12.3-2.6,13.8-9.2
	C-166.4,375.4-167.8,368.3-171.7,363.4z M-168,379.2c-1.4,6.1-10.5,8.2-13.2,8.6c-1.5,0.3-2,1.6-2.1,1.7l0,0.1v22.7
	c0,1.3-6.8,3-17.8,3c-11,0-17.8-1.8-17.8-3V391c1.6,0.3,7.8,1.4,15.6,1.4c5.8,0,12.5-0.6,19-2.6c0.2-0.1,0.3-0.3,0.2-0.5
	c-0.1-0.2-0.3-0.3-0.5-0.2c-1.4,0.4-5,1.1-6.4,1.4c-1.5-1.2-1.2-5-1.2-5s-0.9,2.6-0.6,5.1c-5,0.9-6.6,0.9-7.7-2.9
	c-0.4-2.7,0.3-3.2,0.3-3.3c-1.2,0.6-2.1,3.7-1.5,6.9c0,0-13.6,3.4-13.1-16.8c0,0-1.6,11.5,3.9,16.9c0,0-9.6,0.1-9.4-8.5
	c0,0-1.2,4.1,0.3,6.6c-2.3,1.1-4.7,1.7-7,1.7c-7.2,0-12.6-5.2-12.6-12.1c0-9.4,8.6-11.3,8.9-11.4l0.3-0.1l0-0.3
	c0.1-8,7.9-12.9,15.1-12.9c1.8,0,3.4,0.3,4.9,0.9l0.3,0.1l0,0c0.8,0.5,4.3,2.6,6.1,7.1c0,0-0.3-4.8-5.6-7.9c1.5-2.2,3.9-3.3,7.5-3.3
	c7.8,0,12.5,3.4,13.9,10.2l0,0c-1.2,1.1-2.2,2.8-2.1,5.3c0,0,2-6.4,8.5-7.2c0.4,0,0.8,0,1.2,0c3.8,0,6.5,2.4,8.1,4.4
	C-168.6,368.6-167.2,375.4-168,379.2z"/>
<text transform="matrix(1 0 0 1 -243.7401 452.6943)" font-family="'HelveticaNeue-Bold'" font-size="3.7037">Created by Parmelyn</text>
<text transform="matrix(1 0 0 1 -243.7401 456.3984)" font-family="'HelveticaNeue-Bold'" font-size="3.7037">from the Noun Project</text>
<text transform="matrix(1 0 0 1 -96.9048 442.4812)" font-family="'Baskerville'" font-size="25">i</text>
</svg>
