<?xml version="1.0" encoding="utf-8"?>
<!-- Generator: Adobe Illustrator 13.0.2, SVG Export Plug-In . SVG Version: 6.00 Build 14948)  -->
<!DOCTYPE svg PUBLIC "-//W3C//DTD SVG 1.1//EN" "http://www.w3.org/Graphics/SVG/1.1/DTD/svg11.dtd">
<svg version="1.1" id="Layer_1" xmlns="http://www.w3.org/2000/svg" xmlns:xlink="http://www.w3.org/1999/xlink" x="0px" y="0px"
	 width="90px" height="90px" viewBox="0 0 90 90" enable-background="new 0 0 90 90" xml:space="preserve">
<g>
	<path d="M7.364,47.98l58.532,30.08c4.431,2.682,11.489-0.959,16.12-8.342c4.631-7.381,4.837-15.32,0.495-18.145L29.956,11.968
		c-0.323-0.285-0.665-0.542-1.022-0.766C22.975,7.464,13.32,12.484,6.955,22.631S0.271,43.655,6.229,47.393
		C6.586,47.617,6.967,47.814,7.364,47.98z M80.502,68.77c-4.533,7.227-10.878,10.014-13.959,8.08
		c-3.081-1.932-3.334-8.857,1.2-16.084c4.533-7.227,10.878-10.014,13.959-8.08C84.783,54.617,85.036,61.543,80.502,68.77z
		 M8.469,23.581c5.757-9.178,14.795-14.314,19.735-11.214c0.26,0.163,0.513,0.354,0.748,0.564l0.036,0.032L78.92,50.592
		c-0.051,0.002-0.101,0.006-0.15,0.008c-0.048,0.002-0.096,0.004-0.144,0.006c-0.129,0.008-0.258,0.018-0.389,0.031
		c-0.026,0.004-0.053,0.006-0.08,0.008c-0.157,0.018-0.314,0.041-0.471,0.068c-0.043,0.006-0.085,0.016-0.126,0.023
		c-0.12,0.023-0.239,0.047-0.359,0.074c-0.051,0.01-0.103,0.023-0.154,0.035c-0.122,0.029-0.245,0.062-0.368,0.098
		c-0.04,0.012-0.081,0.021-0.119,0.033c-0.162,0.047-0.323,0.1-0.483,0.154c-0.038,0.014-0.076,0.027-0.114,0.041
		c-0.125,0.045-0.252,0.092-0.379,0.143c-0.054,0.021-0.107,0.043-0.162,0.066c-0.119,0.049-0.237,0.1-0.355,0.152
		c-0.048,0.021-0.096,0.043-0.145,0.064c-0.162,0.074-0.326,0.154-0.489,0.236c-0.025,0.016-0.051,0.029-0.078,0.043
		c-0.138,0.072-0.277,0.146-0.416,0.225c-0.055,0.029-0.108,0.061-0.162,0.092c-0.116,0.066-0.233,0.137-0.35,0.207
		c-0.053,0.031-0.104,0.062-0.157,0.096c-0.153,0.096-0.308,0.195-0.46,0.299c-0.011,0.006-0.021,0.014-0.032,0.021
		c-0.162,0.109-0.324,0.223-0.486,0.34c-0.051,0.037-0.103,0.074-0.152,0.111c-0.116,0.086-0.231,0.174-0.347,0.264
		c-0.054,0.041-0.107,0.084-0.161,0.125c-0.132,0.105-0.263,0.211-0.394,0.322c-0.03,0.025-0.062,0.049-0.093,0.074
		c-0.158,0.135-0.317,0.273-0.475,0.414c-0.046,0.041-0.091,0.084-0.136,0.125c-0.116,0.107-0.231,0.215-0.347,0.324
		c-0.052,0.049-0.104,0.1-0.155,0.15c-0.12,0.117-0.238,0.236-0.356,0.355c-0.039,0.039-0.078,0.078-0.116,0.117
		c-0.153,0.158-0.307,0.32-0.459,0.486c-0.035,0.039-0.07,0.08-0.107,0.119c-0.116,0.131-0.233,0.264-0.349,0.396
		c-0.049,0.057-0.098,0.113-0.146,0.17c-0.109,0.131-0.219,0.262-0.327,0.395c-0.041,0.051-0.083,0.1-0.123,0.15
		c-0.146,0.184-0.291,0.367-0.434,0.557c-0.022,0.029-0.045,0.059-0.067,0.088c-0.121,0.162-0.241,0.324-0.36,0.49
		c-0.045,0.061-0.088,0.123-0.132,0.186c-0.101,0.145-0.2,0.287-0.299,0.434c-0.041,0.062-0.082,0.123-0.124,0.184
		c-0.135,0.205-0.27,0.41-0.401,0.619c-0.132,0.211-0.26,0.42-0.384,0.633c-0.037,0.062-0.073,0.125-0.11,0.189
		c-0.089,0.152-0.177,0.307-0.262,0.461c-0.037,0.064-0.073,0.131-0.108,0.197c-0.099,0.182-0.194,0.361-0.288,0.543
		c-0.016,0.031-0.033,0.062-0.049,0.094c-0.108,0.211-0.211,0.424-0.312,0.635c-0.027,0.057-0.052,0.113-0.079,0.17
		c-0.073,0.158-0.146,0.318-0.217,0.477c-0.028,0.066-0.058,0.131-0.085,0.197c-0.073,0.168-0.144,0.336-0.211,0.502
		c-0.018,0.045-0.037,0.09-0.055,0.135c-0.084,0.211-0.164,0.422-0.243,0.633c-0.015,0.045-0.03,0.09-0.046,0.133
		c-0.06,0.168-0.118,0.334-0.174,0.502c-0.021,0.061-0.042,0.123-0.062,0.186c-0.053,0.162-0.102,0.322-0.15,0.482
		c-0.014,0.051-0.03,0.1-0.045,0.148c-0.061,0.209-0.117,0.416-0.172,0.623c-0.007,0.025-0.012,0.051-0.019,0.078
		c-0.046,0.178-0.088,0.359-0.128,0.537c-0.012,0.059-0.023,0.115-0.036,0.174c-0.033,0.152-0.063,0.309-0.093,0.461
		c-0.011,0.053-0.021,0.104-0.029,0.156c-0.072,0.402-0.13,0.799-0.171,1.189c-0.007,0.051-0.011,0.102-0.017,0.152
		c-0.015,0.148-0.027,0.295-0.037,0.441c-0.004,0.053-0.008,0.104-0.011,0.156c-0.011,0.178-0.02,0.354-0.023,0.527
		c0,0.012-0.001,0.025,0,0.039c-0.005,0.188-0.005,0.375-0.001,0.561c0,0.043,0.002,0.086,0.003,0.129
		c0.003,0.141,0.01,0.281,0.02,0.42c0.002,0.051,0.005,0.102,0.01,0.152c0.011,0.146,0.024,0.293,0.039,0.438
		c0.003,0.029,0.006,0.061,0.01,0.09c0.021,0.174,0.045,0.344,0.072,0.514c0.006,0.035,0.013,0.068,0.019,0.102
		c0.023,0.135,0.049,0.266,0.077,0.396c0.01,0.047,0.021,0.094,0.031,0.143c0.03,0.123,0.061,0.246,0.095,0.367
		c0.011,0.037,0.02,0.074,0.03,0.113c0.046,0.154,0.094,0.309,0.146,0.457c0.009,0.023,0.018,0.047,0.026,0.07
		c0.044,0.125,0.092,0.248,0.142,0.369c0.02,0.045,0.037,0.088,0.057,0.131c0.02,0.047,0.038,0.094,0.06,0.139L7.879,46.697
		l-0.086-0.041C7.5,46.537,7.218,46.393,6.959,46.23C2.02,43.131,2.71,32.759,8.469,23.581z"/>
	<ellipse transform="matrix(0.8471 0.5314 -0.5314 0.8471 45.1828 -31.8231)" cx="77.903" cy="62.62" rx="0.799" ry="1.276"/>
	<ellipse transform="matrix(0.847 0.5316 -0.5316 0.847 47.8269 -28.4911)" cx="73.403" cy="68.831" rx="0.799" ry="1.276"/>
	<ellipse transform="matrix(0.847 0.5316 -0.5316 0.847 44.7933 -29.1243)" cx="72.986" cy="63.245" rx="0.799" ry="1.276"/>
	<path d="M58.69,41.694c-6.312-4.72-12.621-9.44-18.933-14.16c-0.657-0.491-1.171,0.345-0.521,0.832
		c6.312,4.72,12.621,9.44,18.932,14.159C58.825,43.016,59.341,42.181,58.69,41.694z"/>
	<path d="M16.236,24.009c1.492-2.054,3.674-4.003,6.443-4.763c0.679-0.186,0-1.189-0.67-1.005c-2.951,0.81-5.264,2.902-6.854,5.09
		C14.781,23.844,15.865,24.52,16.236,24.009z"/>
	<ellipse transform="matrix(0.8471 0.5314 -0.5314 0.8471 15.6829 -3.5983)" cx="14.095" cy="25.458" rx="0.81" ry="0.623"/>
	<ellipse transform="matrix(0.8472 0.5312 -0.5312 0.8472 32.8843 -25.7966)" cx="61.292" cy="44.273" rx="0.81" ry="0.623"/>
</g>
<line fill="none" x1="12.403" y1="34.713" x2="61.848" y2="67.955"/>
<text transform="matrix(0.8299 0.5579 -0.5579 0.8299 25.3345 43.4077)"><tspan x="0" y="0" font-family="'AvenirNextCondensed-DemiBold'" font-size="18">t</tspan><tspan x="5.123" y="0" font-family="'AvenirNextCondensed-DemiBold'" font-size="18">a</tspan><tspan x="12.951" y="0" font-family="'AvenirNextCondensed-DemiBold'" font-size="18" rotate="0">g</tspan><tspan x="21.807" y="-0.001" font-family="'AvenirNextCondensed-DemiBold'" font-size="18" rotate="0">s</tspan></text>
</svg>
