<?xml version="1.0" encoding="utf-8"?>
<!-- Generator: Adobe Illustrator 13.0.2, SVG Export Plug-In . SVG Version: 6.00 Build 14948)  -->
<!DOCTYPE svg PUBLIC "-//W3C//DTD SVG 1.1//EN" "http://www.w3.org/Graphics/SVG/1.1/DTD/svg11.dtd">
<svg version="1.1" id="Layer_1" xmlns="http://www.w3.org/2000/svg" xmlns:xlink="http://www.w3.org/1999/xlink" x="0px" y="0px"
	 width="90px" height="90px" viewBox="0 0 90 90" enable-background="new 0 0 90 90" xml:space="preserve">
<g>
	<path d="M6.806,35.826L60.208,63.27c4.043,2.447,10.481-0.875,14.707-7.611c4.225-6.734,4.414-13.977,0.452-16.554L27.418,2.97
		c-0.295-0.26-0.606-0.495-0.932-0.699C21.049-1.139,12.24,3.441,6.433,12.699C0.625,21.956,0.335,31.88,5.771,35.291
		C6.096,35.495,6.444,35.674,6.806,35.826z M73.534,54.793c-4.137,6.594-9.925,9.137-12.736,7.373
		c-2.811-1.764-3.041-8.082,1.096-14.676c4.135-6.592,9.924-9.135,12.735-7.371C77.439,41.881,77.671,48.199,73.534,54.793z
		 M7.814,13.565C13.067,5.191,21.312,0.506,25.82,3.333c0.237,0.148,0.468,0.323,0.682,0.515l0.033,0.029l45.556,34.332
		c-0.047,0.002-0.093,0.006-0.138,0.008c-0.043,0.002-0.087,0.003-0.131,0.005c-0.117,0.007-0.235,0.017-0.355,0.028
		c-0.023,0.004-0.048,0.005-0.072,0.007c-0.144,0.017-0.287,0.038-0.431,0.062c-0.039,0.005-0.076,0.015-0.113,0.021
		c-0.111,0.021-0.22,0.043-0.328,0.067c-0.047,0.009-0.095,0.021-0.141,0.032c-0.111,0.027-0.224,0.057-0.335,0.089
		c-0.038,0.011-0.075,0.02-0.109,0.031c-0.147,0.042-0.296,0.091-0.44,0.14c-0.035,0.013-0.069,0.025-0.104,0.038
		c-0.114,0.041-0.229,0.084-0.346,0.13c-0.05,0.019-0.098,0.039-0.148,0.06c-0.108,0.045-0.215,0.091-0.324,0.139
		c-0.042,0.019-0.087,0.039-0.132,0.058c-0.147,0.067-0.297,0.141-0.445,0.215c-0.023,0.015-0.047,0.026-0.071,0.039
		c-0.126,0.066-0.253,0.133-0.379,0.206c-0.051,0.026-0.1,0.055-0.148,0.083c-0.105,0.061-0.213,0.125-0.319,0.189
		c-0.049,0.028-0.095,0.056-0.144,0.087c-0.14,0.088-0.281,0.178-0.419,0.273c-0.011,0.005-0.02,0.013-0.03,0.019
		c-0.147,0.1-0.295,0.204-0.443,0.31c-0.046,0.033-0.093,0.068-0.138,0.102c-0.106,0.078-0.211,0.158-0.317,0.242
		c-0.05,0.035-0.098,0.076-0.146,0.113c-0.121,0.096-0.24,0.191-0.359,0.293c-0.027,0.023-0.057,0.045-0.086,0.068
		c-0.144,0.123-0.288,0.248-0.433,0.377c-0.042,0.037-0.083,0.076-0.124,0.113c-0.105,0.1-0.211,0.197-0.316,0.297
		c-0.048,0.045-0.095,0.09-0.142,0.137c-0.109,0.107-0.217,0.215-0.325,0.324c-0.035,0.035-0.071,0.07-0.104,0.107
		c-0.141,0.143-0.281,0.291-0.419,0.441c-0.032,0.035-0.064,0.074-0.099,0.109c-0.105,0.119-0.212,0.242-0.318,0.361
		c-0.045,0.053-0.089,0.104-0.133,0.154c-0.099,0.121-0.2,0.24-0.299,0.361c-0.037,0.045-0.075,0.092-0.112,0.137
		c-0.134,0.168-0.266,0.336-0.396,0.508c-0.021,0.027-0.041,0.055-0.062,0.08c-0.11,0.148-0.22,0.297-0.328,0.447
		c-0.041,0.057-0.081,0.113-0.12,0.17c-0.093,0.133-0.184,0.262-0.273,0.396c-0.037,0.055-0.074,0.111-0.113,0.168
		c-0.123,0.188-0.245,0.375-0.365,0.564c-0.121,0.193-0.236,0.383-0.351,0.578c-0.034,0.057-0.066,0.113-0.1,0.172
		c-0.082,0.139-0.162,0.281-0.239,0.42c-0.034,0.059-0.067,0.121-0.099,0.18c-0.09,0.168-0.178,0.33-0.263,0.496
		c-0.015,0.029-0.03,0.057-0.045,0.086c-0.099,0.193-0.192,0.387-0.285,0.58c-0.024,0.051-0.047,0.102-0.071,0.154
		c-0.067,0.145-0.134,0.289-0.198,0.436c-0.026,0.061-0.053,0.119-0.078,0.18c-0.065,0.152-0.132,0.307-0.192,0.457
		c-0.016,0.041-0.033,0.082-0.05,0.123c-0.076,0.193-0.149,0.385-0.222,0.578c-0.014,0.041-0.027,0.082-0.042,0.121
		c-0.055,0.152-0.107,0.305-0.158,0.457c-0.02,0.057-0.039,0.113-0.058,0.172c-0.048,0.146-0.093,0.293-0.137,0.438
		c-0.013,0.047-0.027,0.092-0.041,0.137c-0.056,0.189-0.107,0.379-0.157,0.568c-0.006,0.023-0.011,0.047-0.017,0.07
		c-0.042,0.162-0.081,0.328-0.117,0.49c-0.011,0.055-0.021,0.105-0.032,0.158c-0.03,0.141-0.059,0.283-0.085,0.422
		c-0.011,0.047-0.02,0.094-0.026,0.143c-0.066,0.367-0.119,0.729-0.156,1.084c-0.006,0.047-0.01,0.094-0.016,0.139
		c-0.014,0.135-0.024,0.27-0.033,0.402c-0.004,0.049-0.008,0.096-0.011,0.143c-0.01,0.162-0.018,0.322-0.021,0.48
		c0,0.012-0.001,0.023,0,0.035c-0.005,0.172-0.005,0.342-0.001,0.512c0,0.039,0.002,0.078,0.003,0.117
		c0.002,0.131,0.009,0.258,0.019,0.385c0.002,0.045,0.003,0.092,0.009,0.139c0.01,0.133,0.021,0.268,0.035,0.398
		c0.002,0.027,0.006,0.057,0.01,0.082c0.019,0.16,0.041,0.314,0.065,0.469c0.006,0.033,0.011,0.062,0.017,0.094
		c0.021,0.123,0.045,0.242,0.07,0.361c0.01,0.043,0.02,0.086,0.029,0.131c0.026,0.113,0.055,0.225,0.086,0.336
		c0.01,0.033,0.018,0.066,0.027,0.102c0.041,0.141,0.086,0.283,0.133,0.418c0.009,0.02,0.018,0.043,0.024,0.062
		c0.039,0.113,0.084,0.227,0.129,0.336c0.019,0.041,0.034,0.08,0.053,0.121c0.018,0.043,0.034,0.086,0.055,0.127L7.276,34.656
		l-0.079-0.038c-0.267-0.109-0.524-0.24-0.761-0.389C1.931,31.402,2.56,21.939,7.814,13.565z"/>
	<ellipse transform="matrix(0.5311 -0.8473 0.8473 0.5311 -8.3058 83.3595)" cx="71.158" cy="49.184" rx="1.164" ry="0.728"/>
	<ellipse transform="matrix(0.5311 -0.8473 0.8473 0.5311 -15.0263 82.5443)" cx="67.062" cy="54.848" rx="1.164" ry="0.729"/>
	<ellipse transform="matrix(0.5317 -0.847 0.847 0.5317 -10.908 79.7777)" cx="66.682" cy="49.752" rx="1.165" ry="0.728"/>
	<path d="M53.633,30.091c-5.758-4.306-11.515-8.613-17.273-12.919c-0.599-0.448-1.068,0.315-0.476,0.759
		c5.759,4.306,11.515,8.613,17.273,12.918C53.757,31.297,54.228,30.535,53.633,30.091z"/>
	<path d="M14.9,13.956c1.361-1.874,3.352-3.652,5.878-4.345c0.62-0.169,0-1.084-0.611-0.917c-2.692,0.739-4.802,2.648-6.253,4.644
		C13.573,13.805,14.562,14.422,14.9,13.956z"/>
	<ellipse transform="matrix(0.5314 -0.8471 0.8471 0.5314 -6.8747 18.1269)" cx="12.947" cy="15.277" rx="0.568" ry="0.739"/>
	<ellipse transform="matrix(0.5309 -0.8474 0.8474 0.5309 -1.218 62.682)" cx="56.008" cy="32.441" rx="0.568" ry="0.739"/>
</g>
<line fill="none" x1="4.985" y1="19.845" x2="54.43" y2="53.088"/>
<text transform="matrix(0.8299 0.5579 -0.5579 0.8299 24.583 31.2061)" font-family="'AvenirNextCondensed-Regular'" font-size="18">t</text>
<text transform="matrix(0.8299 0.5579 -0.5579 0.8299 28.8345 34.0645)" font-family="'AvenirNextCondensed-Regular'" font-size="18">a</text>
<text transform="matrix(0.8299 0.5579 -0.5579 0.8299 35.3311 38.4316)" font-family="'AvenirNextCondensed-Regular'" font-size="18">g</text>
<text transform="matrix(0.8299 0.5579 -0.5579 0.8299 42.6812 43.3721)" font-family="'AvenirNextCondensed-Regular'" font-size="18">s</text>
<ellipse cx="69.63" cy="77.686" rx="1.035" ry="0.907"/>
<ellipse cx="77.871" cy="73.834" rx="1.037" ry="0.907"/>
<ellipse cx="75.992" cy="60.752" rx="1.037" ry="0.907"/>
<ellipse cx="66.5" cy="86.26" rx="1.036" ry="0.907"/>
<ellipse cx="74.16" cy="83.196" rx="1.035" ry="0.905"/>
<ellipse cx="66.5" cy="68.26" rx="1.036" ry="0.907"/>
<ellipse cx="72.093" cy="69.298" rx="1.037" ry="0.907"/>
</svg>
