<?xml version="1.0" encoding="utf-8"?>
<!-- Generator: Adobe Illustrator 18.1.1, SVG Export Plug-In . SVG Version: 6.00 Build 0)  -->
<svg version="1.1" id="Layer_1" xmlns="http://www.w3.org/2000/svg" xmlns:xlink="http://www.w3.org/1999/xlink" x="0px" y="0px"
	 viewBox="288.8 376 32.8 40" enable-background="new 288.8 376 32.8 40" xml:space="preserve">
<g>
	<g>
		<path d="M307.1,384.4h-10.3c-0.4,0-0.8-0.3-0.8-0.8c0-0.4,0.3-0.8,0.8-0.8h10.4c0.4,0,0.8,0.3,0.8,0.8
			C308,384,307.6,384.4,307.1,384.4z"/>
		<path d="M314.3,389.4h-17.5c-0.4,0-0.8-0.3-0.8-0.8c0-0.4,0.3-0.8,0.8-0.8h17.5c0.4,0,0.8,0.3,0.8,0.8
			C315.1,389,314.7,389.4,314.3,389.4z"/>
		<path d="M309.6,399.3h-12.8c-0.4,0-0.8-0.3-0.8-0.8s0.3-0.8,0.8-0.8h12.8c0.4,0,0.8,0.3,0.8,0.8S310.1,399.3,309.6,399.3z"/>
		<path d="M314.3,394.4h-17.5c-0.4,0-0.8-0.3-0.8-0.8s0.3-0.8,0.8-0.8h17.5c0.4,0,0.8,0.3,0.8,0.8S314.7,394.4,314.3,394.4z"/>
		<path d="M314.3,404.4h-17.5c-0.4,0-0.8-0.3-0.8-0.8s0.3-0.8,0.8-0.8h17.5c0.4,0,0.8,0.3,0.8,0.8S314.7,404.4,314.3,404.4z"/>
		<path d="M303.9,409.3h-7.1c-0.4,0-0.8-0.3-0.8-0.8c0-0.4,0.3-0.8,0.8-0.8h7c0.4,0,0.8,0.3,0.8,0.8
			C304.6,409,304.3,409.3,303.9,409.3z"/>
	</g>
	<path d="M317.9,376.2L317.9,376.2h-23.8l0,0c-0.1,0-0.1,0-0.1,0c-0.1,0-0.3,0-0.3,0.1c-0.1,0-0.1,0.1-0.2,0.1c-1,0.3-1.8,1-2.1,2.1
		h-1.1c-0.4,0-0.8,0.3-0.8,0.8l0,0l0,0c0,0.1,0,0.1,0,0.1l0,0c0.1,0.3,0.4,0.6,0.8,0.6h1v1.5h-1c-0.1,0-0.3,0.1-0.4,0.1
		c-0.1,0.1-0.3,0.3-0.3,0.5c0,0,0,0,0,0.1s0,0.1,0,0.1v0.1l0,0l0,0c0,0.4,0.3,0.8,0.8,0.8h1v1.5h-1c-0.4,0-0.8,0.3-0.8,0.8l0,0l0,0
		c0,0.4,0.3,0.8,0.8,0.8h1v1.5h-1c-0.4,0-0.8,0.3-0.8,0.8l0,0c0,0,0,0,0,0.1c0,0.4,0.3,0.8,0.8,0.8h1v1.5h-1c-0.4,0-0.8,0.3-0.8,0.8
		c0,0,0,0,0,0.1v0.1c0,0.4,0.3,0.8,0.8,0.8h1v1.4h-1c-0.4,0-0.8,0.3-0.8,0.8v0.1v0.1c0,0.4,0.3,0.8,0.8,0.8h1v1.4h-1
		c-0.4,0-0.8,0.3-0.8,0.8v0.1v0.1c0,0.4,0.3,0.8,0.8,0.8h1v1.4h-1c-0.4,0-0.8,0.3-0.8,0.8v0.1c0,0.1,0,0.1,0,0.1
		c0,0.4,0.3,0.8,0.8,0.8h1v1.3h-1c-0.4,0-0.8,0.3-0.8,0.8c0,0.1,0,0.1,0,0.1v0.1c0,0.4,0.3,0.8,0.8,0.8h1v1.3h-1
		c-0.4,0-0.8,0.3-0.8,0.8c0,0.1,0,0.1,0,0.1v0.1c0,0.4,0.3,0.8,0.8,0.8h1v1.3h-1c-0.4,0-0.8,0.3-0.8,0.8c0,0.1,0,0.1,0,0.1v0.1
		c0,0.4,0.3,0.8,0.8,0.8h1v1.3h-1c-0.4,0-0.8,0.3-0.8,0.8c0,0.1,0,0.1,0,0.1c0,0.1,0,0.1,0,0.1c0,0.4,0.3,0.8,0.8,0.8h1
		c0.3,1.3,1.4,2.3,2.8,2.3h23.8c1.5,0,2.9-1.3,2.9-2.9v-34.1C320.8,377.5,319.5,376.2,317.9,376.2z M317.9,377.7L317.9,377.7
		c0.7,0,1.2,0.5,1.3,1.1c0,0.1,0,0.1,0,0.2v34.1c0,0.1,0,0.1,0,0.2c-0.1,0.6-0.6,1.1-1.3,1.1l0,0h-23.8c-0.7,0-1.3-0.6-1.3-1.3
		v-34.1c0-0.7,0.6-1.3,1.3-1.3H317.9z"/>
</g>
<text transform="matrix(1 0 0 1 -115.6857 1223.6658)" font-family="'HelveticaNeue-Bold'" font-size="34.8718">Created by Skye Selbiger</text>
<text transform="matrix(1 0 0 1 -115.6857 1258.5403)" font-family="'HelveticaNeue-Bold'" font-size="34.8718">from the Noun Project</text>
</svg>
