<?xml version="1.0" encoding="utf-8"?>
<!-- Generator: Adobe Illustrator 13.0.2, SVG Export Plug-In . SVG Version: 6.00 Build 14948)  -->
<!DOCTYPE svg PUBLIC "-//W3C//DTD SVG 1.1//EN" "http://www.w3.org/Graphics/SVG/1.1/DTD/svg11.dtd">
<svg version="1.1" id="Your_Icon" xmlns="http://www.w3.org/2000/svg" xmlns:xlink="http://www.w3.org/1999/xlink" x="0px" y="0px"
	 width="100px" height="100px" viewBox="0 0 100 100" enable-background="new 0 0 100 100" xml:space="preserve">
<g>
	<path d="M50.374,19.378c0.982,0,1.966,0,2.949,0c0.161,0.02,0.321,0.051,0.483,0.059c4.071,0.207,8.149,0.335,12.216,0.635
		c5.377,0.397,10.698,1.229,15.948,2.471c3.956,0.935,7.837,2.103,11.489,3.925c2.078,1.037,4.033,2.255,5.561,4.05
		c1.023,1.204,1.73,2.569,1.732,4.176c0,0.858-0.217,1.714-0.314,2.574c-0.497,4.367-1.561,8.593-3.232,12.656
		c-6.779,16.469-21.265,27.694-38.89,30.137c-5.619,0.778-11.216,0.567-16.751-0.654c-11.549-2.551-21.005-8.495-28.311-17.787
		c-5.29-6.727-8.527-14.368-9.797-22.837c-0.179-1.193-0.38-2.383-0.571-3.574c0-0.229,0-0.459,0-0.688
		c0.145-0.585,0.235-1.191,0.445-1.751c0.707-1.883,2.089-3.222,3.677-4.368c2.438-1.761,5.17-2.937,7.992-3.914
		c6.641-2.298,13.519-3.463,20.478-4.221c4.822-0.525,9.661-0.783,14.511-0.831C50.118,19.434,50.246,19.398,50.374,19.378z
		 M51.725,22.704c-4.314-0.026-9.451,0.193-14.575,0.689c-5.286,0.511-10.525,1.298-15.68,2.588
		c-3.514,0.879-6.962,1.957-10.19,3.637c-1.517,0.789-2.962,1.69-4.091,3.008c-1.31,1.528-1.304,2.953-0.001,4.491
		c0.98,1.156,2.216,1.983,3.523,2.708c3.018,1.675,6.268,2.752,9.584,3.642c6.395,1.716,12.924,2.626,19.51,3.125
		c3.198,0.242,6.409,0.341,9.616,0.419c5.242,0.127,10.482-0.031,15.703-0.518c3.105-0.29,6.201-0.711,9.289-1.154
		c3.977-0.57,7.891-1.453,11.721-2.667c2.902-0.92,5.736-2.008,8.279-3.726c1.01-0.682,1.936-1.456,2.59-2.51
		c0.668-1.072,0.688-2.165-0.047-3.172c-0.506-0.692-1.111-1.342-1.778-1.879c-2.041-1.639-4.421-2.663-6.856-3.552
		c-5.549-2.025-11.312-3.134-17.145-3.915C64.999,23.09,58.788,22.72,51.725,22.704z"/>
	<path display="none" d="M2.885,35.208c0.191,1.191,0.392,2.381,0.571,3.574c1.271,8.469,4.508,16.11,9.797,22.837
		c7.306,9.292,16.761,15.236,28.311,17.787c5.536,1.222,11.132,1.433,16.751,0.654c17.625-2.442,32.109-13.668,38.891-30.137
		c1.672-4.063,2.734-8.288,3.231-12.656c0.099-0.859,0.313-1.716,0.313-2.574c0-1.607-0.707-2.972-1.731-4.176
		c-1.526-1.795-3.483-3.014-5.56-4.05c-3.653-1.822-7.535-2.99-11.49-3.925c-5.25-1.241-10.571-2.073-15.948-2.471
		c-4.065-0.301-8.144-0.428-12.216-0.635c-0.162-0.008-0.322-0.039-0.482-0.059c15.858,0,31.719,0,47.582,0
		c0,20.411,0,40.822,0,61.243c-32.671,0-65.345,0-98.021,0C2.885,65.484,2.885,50.346,2.885,35.208z"/>
	<path display="none" d="M50.374,19.378c-0.128,0.02-0.256,0.055-0.384,0.057c-4.85,0.048-9.689,0.306-14.511,0.831
		c-6.959,0.758-13.837,1.923-20.478,4.221c-2.822,0.976-5.554,2.153-7.992,3.914c-1.588,1.147-2.97,2.485-3.677,4.368
		c-0.211,0.56-0.3,1.166-0.445,1.751c0-5.043,0-10.086,0-15.141C18.715,19.378,34.545,19.378,50.374,19.378z"/>
	<path display="none" d="M51.725,22.704c7.063,0.017,13.274,0.387,19.452,1.214c5.832,0.781,11.595,1.89,17.145,3.915
		c2.436,0.889,4.816,1.912,6.856,3.552c0.667,0.536,1.272,1.188,1.778,1.879c0.736,1.006,0.715,2.099,0.047,3.172
		c-0.654,1.054-1.58,1.828-2.59,2.51c-2.543,1.717-5.377,2.806-8.279,3.726c-3.831,1.215-7.745,2.097-11.721,2.667
		c-3.088,0.443-6.184,0.864-9.289,1.154c-5.221,0.488-10.461,0.646-15.703,0.518c-3.207-0.078-6.418-0.176-9.616-0.419
		c-6.586-0.499-13.116-1.409-19.51-3.125c-3.316-0.89-6.566-1.967-9.584-3.642c-1.307-0.725-2.544-1.552-3.523-2.708
		c-1.303-1.538-1.309-2.963,0.001-4.491c1.13-1.318,2.574-2.219,4.091-3.008c3.228-1.68,6.676-2.758,10.19-3.637
		c5.155-1.29,10.395-2.077,15.68-2.588C42.274,22.897,47.41,22.678,51.725,22.704z"/>
</g>
<text transform="matrix(1 0 0 1 36.27 66.5)" fill="#FFFFFF" font-family="'Baskerville'" font-size="20">tags</text>
</svg>
